<?xml version="1.0" encoding="utf-8"?>
<!-- Generator: Adobe Illustrator 22.0.1, SVG Export Plug-In . SVG Version: 6.00 Build 0)  -->
<svg version="1.1" id="Livello_1" xmlns="http://www.w3.org/2000/svg" xmlns:xlink="http://www.w3.org/1999/xlink" x="0px" y="0px"
	 width="1000px" height="1000px" viewBox="0 0 1000 1000" style="enable-background:new 0 0 1000 1000;" xml:space="preserve">
<style type="text/css">
	.st0{opacity:0.8;}
	.st1{clip-path:url(#SVGID_2_);}
	.st2{fill:#727272;}
	.st3{clip-path:url(#SVGID_4_);}
	.st4{clip-path:url(#SVGID_6_);}
	.st5{clip-path:url(#SVGID_8_);}
	.st6{clip-path:url(#SVGID_10_);}
	.st7{clip-path:url(#SVGID_12_);}
</style>
<g class="st0">
	<defs>
		<rect id="SVGID_1_" class="st0" width="1000" height="1000"/>
	</defs>
	<clipPath id="SVGID_2_">
		<use xlink:href="#SVGID_1_"  style="overflow:visible;"/>
	</clipPath>
	<g id="foglio_1_" class="st1">
		<g>
			<path class="st2" d="M237.3,958.9L118.5,851.4L280.1,673l78.9,71.4l19,59.1L237.3,958.9z M135,850.6l101.4,91.9l128.4-141.8
				l-16-49.7l-67.9-61.5L135,850.6z"/>
		</g>
		<g>
			<path class="st2" d="M318.3,787.6c-0.9-0.8-1.5-1.8-1.7-2.9c-0.5-1.9,0-3.8,1.3-5.3l31.7-35.6c1.4-1.6,3.5-2.3,5.6-1.8
				c2,0.4,3.7,1.9,4.3,3.9l17.5,54.4c0.7,2.1,0.1,4.5-1.5,6c-1.6,1.5-4,2-6.1,1.2l-49.2-18.8C319.5,788.5,318.9,788.1,318.3,787.6z
				 M351.5,759.1l-19.3,21.7l30,11.4L351.5,759.1z"/>
		</g>
	</g>
	<g id="foglio_2_" class="st1">
		<g>
			<path class="st2" d="M641.8,565.3l-151.1-34.6l52.1-227.1l100.4,23l44,40.9L641.8,565.3z M504.2,522.2l129.1,29.6l41.4-180.5
				l-37-34.4L551.3,317L504.2,522.2z"/>
		</g>
		<g>
			<path class="st2" d="M629.3,382.2c-1.1-0.2-2.1-0.8-2.9-1.7c-1.3-1.4-1.8-3.2-1.4-5.1l9.9-45.1c0.4-2,1.9-3.6,3.8-4.2
				c1.9-0.6,4-0.1,5.5,1.3l40.5,37.7c1.6,1.5,2.2,3.7,1.5,5.8c-0.6,2.1-2.4,3.6-4.6,3.9l-50.4,7.4
				C630.6,382.4,629.9,382.4,629.3,382.2z M643.8,342.5l-6,27.5l30.7-4.5L643.8,342.5z"/>
		</g>
	</g>
	<g id="foglio_6_" class="st1">
		<g>
			<path class="st2" d="M968.9,175.9l-149.2,21.8L787-26.6L886.1-41l54.3,21.6L968.9,175.9z M829,185.3l127.5-18.6l-26-178.2
				l-45.7-18.2l-85.3,12.5L829,185.3z"/>
		</g>
		<g>
			<path class="st2" d="M893.1,14.4c-1.1,0.2-2.2,0-3.2-0.5c-1.6-0.8-2.8-2.3-3-4.1L880-34.5c-0.3-1.9,0.5-3.9,2-5.1
				c1.5-1.2,3.6-1.5,5.4-0.8l50,19.9c2,0.8,3.3,2.6,3.4,4.7c0.1,2.1-0.9,4.1-2.8,5.1L895,13.7C894.4,14.1,893.7,14.3,893.1,14.4z
				 M892.3-26.7l4.2,27l26.3-14.9L892.3-26.7z"/>
		</g>
	</g>
	<g id="penna_1_" class="st1">
		<g>
			<path class="st2" d="M739.8,648.9l-36.4-34.3l176.7-187.2l36.4,34.3L739.8,648.9z M715.5,614.2l23.9,22.6L904.3,462l-23.9-22.6
				L715.5,614.2z"/>
		</g>
		<g>
			
				<rect x="826.5" y="423.9" transform="matrix(0.7271 0.6865 -0.6865 0.7271 584.6387 -427.3228)" class="st2" width="6.7" height="195.6"/>
		</g>
		<g>
			<path class="st2" d="M874.6,425.9c0,0,7.8,30.4,45.1,42.6l0.2-6l50.5-87.4l-8.7-8.2l-82,53.5l-6.3-5.9l-54.9,58.1l-4.4,17.3
				L874.6,425.9z"/>
		</g>
		<g>
			<path class="st2" d="M725,664.4l-36.4-34.3l19.9-21l36.4,34.3L725,664.4z M700.8,629.7l23.9,22.6l8.1-8.6l-23.9-22.6L700.8,629.7
				z"/>
		</g>
	</g>
	<g id="penna_2_" class="st1">
		<g>
			<path class="st2" d="M215.5,168l47.9-32.4l166.9,246.6l-47.9,32.4L215.5,168z M260.7,149.4l-31.5,21.3L385,400.8l31.5-21.3
				L260.7,149.4z"/>
		</g>
		<g>
			
				<rect x="299.3" y="139.6" transform="matrix(-0.8282 0.5605 -0.5605 -0.8282 695.9256 292.0019)" class="st2" width="7.7" height="226.2"/>
		</g>
		<g>
			<path class="st2" d="M269.9,135c0,0-14.6,33.2-59.5,40.3l0.8-6.9L169.9,59.2l11.4-7.7l83.6,76.3l8.3-5.6l51.8,76.5l1.8,20.5
				L269.9,135z"/>
		</g>
		<g>
			<path class="st2" d="M377.5,407.4l47.9-32.4l18.8,27.7l-47.9,32.4L377.5,407.4z M422.7,388.7L391.3,410l7.6,11.3l31.5-21.3
				L422.7,388.7z"/>
		</g>
	</g>
	<g id="blocnotes_1_" class="st1">
		<g>
			<path class="st2" d="M791.1,929l-125.6-15.3c-1.6-0.2-2.9-1.2-3.5-2.6c-0.6-1.4-0.4-3.1,0.5-4.4l95-126.4c0.9-1.3,2.5-1.9,4-1.7
				l125.6,15.3c1.6,0.2,2.9,1.2,3.5,2.6c0.6,1.4,0.4,3.1-0.5,4.4l-95,126.4c-0.7,0.9-1.7,1.5-2.8,1.7
				C791.9,929.1,791.5,929.1,791.1,929z M763,787.7L674.1,906l115.6,14l88.9-118.3L763,787.7z"/>
		</g>
		<g>
			<path class="st2" d="M794.8,946.7l-122.3-16.4c-1.5-0.2-2.8-1.2-3.4-2.6l-7-16.4c-0.6-1.4-0.4-3.1,0.5-4.4c0.9-1.3,2.5-1.9,4-1.7
				l123.1,15l93.5-124.4c1.1-1.5,3-2.1,4.7-1.6c1.7,0.5,3,2,3.1,3.9l1.7,20.9c0.1,1.1-0.2,2.1-0.9,3l-93,123.1
				c-0.7,0.9-1.7,1.5-2.8,1.7C795.6,946.7,795.2,946.7,794.8,946.7z M883.2,810.1l-88.1,117.2c-0.9,1.3-2.5,1.9-4,1.7L673,914.7
				l3.1,7.2l117.3,15.8l90.4-119.8L883.2,810.1z"/>
		</g>
		<g>
			<path class="st2" d="M886.1,802.6l-125.6-15.3c-0.8-0.1-1.6-0.4-2.2-0.9c-0.3-0.3-33.4-27.3-7.2-64.1c0.9-1.2,2.3-1.9,3.7-1.8
				l142.5,5.7c1.9,0.1,3.5,1.4,4,3.2c0.5,1.8-0.2,3.8-1.7,4.8c-0.2,0.1-16.2,11.3-19.2,28.9c-1.8,10.6,1.5,21.5,9.7,32.5
				c1,1.4,1.2,3.3,0.3,4.8c-0.7,1.1-1.8,1.9-3.1,2.1C886.9,802.7,886.5,802.7,886.1,802.6z M757,729.4c-17.1,26.2,1.4,45.4,5.9,49.4
				l115,14c-5.8-10.4-7.8-20.9-6-31.2c2-11.9,8.7-21.1,14.3-27L757,729.4z M761,783L761,783L761,783z M761,783L761,783L761,783z"/>
		</g>
		<g>
			<path class="st2" d="M931.3,762.5c-20.8-7.3-46.1-11.5-49.2-5.9c-1.1,2-3.6,2.9-5.7,1.9c-2.1-1-3.1-3.4-2.3-5.5
				c0.3-0.8,7.5-19.4,21-26.3c0.5-0.3,1.1-0.4,1.6-0.5c11.4-0.9,34.5,4.5,40.2,31.2c0.3,1.6-0.2,3.2-1.4,4.2c-0.6,0.6-1.4,0.9-2.2,1
				C932.8,762.8,932,762.8,931.3,762.5z M888,745.5c5.5-0.5,12.4,0.2,21,1.9c6.3,1.3,12.4,2.9,17,4.3c-7.3-16-23.6-16.7-27.6-16.7
				C894.2,737.4,890.7,741.5,888,745.5z"/>
		</g>
	</g>
	<g id="blocnotes_3_" class="st1">
		<g>
			<path class="st2" d="M186.1,582.4c-1.1,0-2.3-0.4-3.1-1.2L65.4,469.3c-1.2-1.1-1.6-2.8-1.3-4.3c0.4-1.6,1.6-2.8,3.1-3.3
				L191.7,425c1.5-0.5,3.2-0.1,4.4,1.1l117.6,111.8c1.2,1.1,1.6,2.8,1.3,4.3c-0.4,1.6-1.6,2.8-3.1,3.3l-124.5,36.7
				C186.9,582.3,186.5,582.4,186.1,582.4z M77.2,468.2l110.1,104.7L301.8,539L191.8,434.4L77.2,468.2z"/>
		</g>
		<g>
			<path class="st2" d="M185.3,600.8c-1.1,0-2.2-0.4-3.1-1.2l-115-108.8c-0.8-0.8-1.3-1.8-1.4-2.9L64,466.5
				c-0.2-1.9,0.8-3.6,2.5-4.4c1.7-0.8,3.7-0.5,5,0.8l115.7,110l122-36c1.5-0.5,3.2-0.1,4.4,1.1c1.2,1.1,1.6,2.8,1.3,4.3l-4.3,17.8
				c-0.4,1.5-1.5,2.8-3,3.2l-121,37.4C186.2,600.8,185.7,600.8,185.3,600.8z M74.6,485.4l111.8,105.8l116-35.8l1.9-7.8l-117,34.5
				c-1.5,0.5-3.2,0.1-4.4-1.1L74,477.5L74.6,485.4z"/>
		</g>
		<g>
			<path class="st2" d="M68.5,470.6c-1.3,0-2.6-0.6-3.5-1.6c-1.1-1.4-1.4-3.3-0.5-4.9c6.4-12.6,7.9-24.2,4.3-34.6
				c-6-17.3-24.1-25.9-24.3-26c-1.8-0.8-2.8-2.7-2.6-4.6c0.2-1.9,1.6-3.5,3.5-3.9l143.2-29.9c1.5-0.3,3,0.1,4.1,1.2
				c32.8,32.8,3.9,65.7,3.6,66c-0.6,0.6-1.3,1.1-2.1,1.3L69.8,470.4C69.3,470.5,68.9,470.6,68.5,470.6z M58.2,401.5
				c6.7,5,15,13.2,19,24.9c3.5,10.2,3.3,21.1-0.8,32.6l114-33.6c3.9-4.9,19.4-27.4-2.4-51L58.2,401.5z M193,429.3L193,429.3
				L193,429.3z M193,429.3L193,429.3L193,429.3z"/>
		</g>
		<g>
			<path class="st2" d="M15,438c-0.8,0-1.6-0.2-2.4-0.7c-1.4-0.9-2.2-2.4-2.1-4c1.2-28,23.7-37.4,35.4-38.4c0.6-0.1,1.2,0,1.7,0.2
				c14.8,4.7,25.3,22.3,25.7,23.1c1.2,2,0.6,4.7-1.4,6c-2,1.3-4.6,0.9-6.1-1c-4.1-5.2-28.9,3.3-48.8,14.3
				C16.5,437.8,15.8,438,15,438z M45.8,404c-4,0.6-20.4,4.1-25.1,21.5c4.4-2.2,10.3-4.8,16.5-7.2c8.3-3.2,15.3-5,20.9-5.5
				C54.8,409.3,50.5,405.7,45.8,404z"/>
		</g>
	</g>
	<g id="blocnotes_2_" class="st1">
		<g>
			<path class="st2" d="M486.6,132.1c-1.1-0.5-2-1.4-2.5-2.5L414.6-30.7c-0.7-1.6-0.5-3.4,0.6-4.8c1-1.4,2.7-2.1,4.4-1.9l138.8,16.1
				c1.7,0.2,3.2,1.3,3.9,2.9l69.4,160.4c0.7,1.6,0.5,3.4-0.6,4.8c-1,1.4-2.7,2.1-4.4,1.9l-138.8-16.1
				C487.4,132.4,487,132.3,486.6,132.1z M426.8-26.9l64.9,150.1L619.5,138L554.6-12.1L426.8-26.9z"/>
		</g>
		<g>
			<path class="st2" d="M478,150.1c-1.1-0.5-2-1.4-2.5-2.5L407.4-8.7c-0.5-1.1-0.5-2.3-0.2-3.4l7.2-22c0.6-1.9,2.4-3.2,4.4-3.3
				c2-0.1,3.9,1.1,4.7,2.9l68.3,157.8l136.1,15.7c1.7,0.2,3.2,1.3,3.9,2.9c0.7,1.6,0.5,3.4-0.6,4.8l-11.8,15.9
				c-1,1.4-2.7,2.1-4.4,1.9l-135.6-14C478.9,150.4,478.5,150.3,478,150.1z M417-10.9l66.2,152l130.1,13.4l5.1-6.9l-130.5-15.1
				c-1.7-0.2-3.2-1.3-3.9-2.9L419.7-19L417-10.9z"/>
		</g>
		<g>
			<path class="st2" d="M417.2-28.2c-1.3-0.6-2.3-1.7-2.7-3.1c-0.6-1.9,0.1-3.9,1.5-5.1c11.7-9.7,18-20.7,18.8-32.5
				c1.4-19.7-13-35.8-13.2-36c-1.4-1.5-1.7-3.8-0.6-5.6c1-1.8,3.1-2.8,5.2-2.4l154.5,30.7c1.6,0.3,2.9,1.4,3.5,2.9
				c18.7,46.3-23.8,66.8-24.2,67c-0.8,0.4-1.7,0.5-2.6,0.4L418.5-27.9C418.1-27.9,417.6-28,417.2-28.2z M436.1-101
				c4.5,7.8,9.3,19.4,8.4,32.7c-0.8,11.6-5.7,22.3-14.5,32L557-21.6c5.9-3.2,30.7-19,19.1-51.6L436.1-101z M557.9-16.6L557.9-16.6
				L557.9-16.6z M557.9-16.6L557.9-16.6L557.9-16.6z"/>
		</g>
		<g>
			<path class="st2" d="M377.9-83c-0.8-0.3-1.5-0.9-2.1-1.7c-1-1.4-1.2-3.3-0.4-4.9c13-27.3,39.2-27,51.2-23.1
				c0.6,0.2,1.2,0.5,1.6,0.9c12.7,10.9,15.7,32.8,15.8,33.7c0.3,2.5-1.4,4.9-3.9,5.4c-2.5,0.5-5-1-5.6-3.5
				c-1.8-6.9-30.1-8.9-54.3-6.4C379.5-82.5,378.7-82.7,377.9-83z M422.8-103.7c-4.3-1.1-22-4.5-33.9,10.8c5.3-0.3,12.2-0.5,19.3-0.2
				c9.6,0.4,17.3,1.5,23,3.4C429.4-94.7,426.7-100,422.8-103.7z"/>
		</g>
	</g>
	<g id="matita_2_" class="st1">
		<g>
			<path class="st2" d="M614.3,819.6l-28.3,23.1c-1.7,1.4-4.3,1.2-5.7-0.6L415.9,640.4l6.3-5.1l161.8,198.6l22-18L444.2,617.3
				l6.3-5.1l164.3,201.7C616.3,815.7,616,818.2,614.3,819.6z"/>
		</g>
		<g>
			<defs>
				<path id="SVGID_3_" d="M432.1,639.2c-0.1,0.1-0.2,0.2-0.3,0.2c-5.6,4.3-12.9,2.5-13.8,2.3c-1.2-0.3-2.2-1.2-2.7-2.3L388,577
					c-0.7-1.7-0.3-3.6,1.2-4.8c1.4-1.2,3.4-1.2,4.9-0.2l55.7,39.4c1,0.7,1.6,1.9,1.7,3.1c0.3,6.4-2.2,10.1-4.3,12
					c-3.1,2.8-7.2,3.7-10.2,3.9C436.2,634.2,434.6,637.2,432.1,639.2z M421.9,634.2c1.5,0.1,3.6-0.1,5-1.2c1.5-1.1,2.3-3.4,2.3-6.7
					c0-1.2,0.5-2.3,1.4-3.1c0.9-0.8,2.1-1.1,3.2-0.9c1.4,0.2,5.7,0.3,7.9-1.8c0.9-0.8,1.5-2.1,1.6-3.7l-42-29.7L421.9,634.2z"/>
			</defs>
			<use xlink:href="#SVGID_3_"  style="overflow:visible;fill:#727272;"/>
			<clipPath id="SVGID_4_">
				<use xlink:href="#SVGID_3_"  style="overflow:visible;"/>
			</clipPath>
			<g class="st3">
				
					<ellipse transform="matrix(0.7753 -0.6316 0.6316 0.7753 -279.5309 383.5092)" class="st2" cx="399.2" cy="584.6" rx="8" ry="13.1"/>
			</g>
		</g>
		<g id="XMLID_2_">
			
				<rect x="585.4" y="804" transform="matrix(-0.6316 -0.7753 0.7753 -0.6316 329.7251 1801.2217)" class="st2" width="14.9" height="36.6"/>
		</g>
		<g id="XMLID_1_">
			<path class="st2" d="M632.6,842.1l-28.3,23.1c-1.7,1.4-4.3,1.2-5.7-0.6l-18.3-22.5c-1.4-1.7-1.2-4.3,0.6-5.7l28.3-23.1
				c1.7-1.4,4.3-1.2,5.7,0.6l18.3,22.5C634.6,838.1,634.3,840.7,632.6,842.1z M602.3,856.3l22-18l-13.2-16.2l-22,18L602.3,856.3z"/>
		</g>
	</g>
	<g id="matita_3_" class="st1">
		<g>
			<path class="st2" d="M784.6,304.6l-31.1,10.2c-1.9,0.6-4-0.4-4.6-2.3L676.1,90.8l6.9-2.3l71.6,218.2l24.2-7.9L707.3,80.6l6.9-2.3
				L786.9,300C787.6,301.9,786.5,304,784.6,304.6z"/>
		</g>
		<g>
			<defs>
				<path id="SVGID_5_" d="M690.1,95c-0.1,0-0.2,0.1-0.3,0.1c-6.1,1.8-11.6-2-12.3-2.5c-0.9-0.7-1.5-1.7-1.5-2.8l-2.8-61.1
					c-0.1-1.6,0.9-3.1,2.5-3.6c1.6-0.5,3.3,0.1,4.2,1.4l33.9,50.9c0.6,0.9,0.8,2.1,0.4,3.1c-1.8,5.4-5,7.7-7.5,8.7
					c-3.5,1.4-7.2,0.8-9.8,0C695.2,92.2,692.9,94.1,690.1,95z M683.2,87.5c1.3,0.6,3,1.1,4.5,0.6c1.6-0.5,3-2.1,4.1-4.9
					c0.4-1,1.2-1.8,2.2-2.1c1-0.4,2.1-0.3,3,0.3c1.1,0.6,4.7,2.1,7.2,1.1c1-0.4,1.9-1.3,2.5-2.6L681,41.5L683.2,87.5z"/>
			</defs>
			<use xlink:href="#SVGID_5_"  style="overflow:visible;fill:#727272;"/>
			<clipPath id="SVGID_6_">
				<use xlink:href="#SVGID_5_"  style="overflow:visible;"/>
			</clipPath>
			<g class="st4">
				
					<ellipse transform="matrix(0.9502 -0.3117 0.3117 0.9502 21.7977 213.9557)" class="st2" cx="680.2" cy="38.8" rx="7.2" ry="11.7"/>
			</g>
		</g>
		<g id="XMLID_5_">
			
				<rect x="759.1" y="283.5" transform="matrix(-0.3117 -0.9502 0.9502 -0.3117 719.5848 1121.0365)" class="st2" width="13.3" height="32.8"/>
		</g>
		<g id="XMLID_4_">
			<path class="st2" d="M792.7,329.3l-31.1,10.2c-1.9,0.6-4-0.4-4.6-2.3l-8.1-24.7c-0.6-1.9,0.4-4,2.3-4.6l31.1-10.2
				c1.9-0.6,4,0.4,4.6,2.3l8.1,24.7C795.7,326.6,794.6,328.7,792.7,329.3z M762.8,331.4l24.2-7.9l-5.8-17.8l-24.2,7.9L762.8,331.4z"
				/>
		</g>
	</g>
	<g id="matita_6_" class="st1">
		<g>
			<path class="st2" d="M-3.9,265.2l-34.5-13.9c-2.1-0.9-3.1-3.3-2.3-5.4L58.4,0.3L66,3.4l-97.5,241.8L-4.7,256L92.9,14.2l7.7,3.1
				L1.5,262.9C0.6,265-1.8,266-3.9,265.2z"/>
		</g>
		<g>
			<defs>
				<path id="SVGID_7_" d="M67.4,14.1C67.2,14.1,67.1,14,67,14c-6.6-2.9-8.6-10.3-8.8-11.1c-0.3-1.2,0-2.5,0.7-3.5l42.3-55.1
					c1.1-1.5,3.1-2,4.8-1.3c1.7,0.7,2.8,2.5,2.6,4.3l-7.8,69c-0.1,1.3-0.9,2.4-1.9,3.1c-5.5,3.4-10,3-12.8,2.1
					c-4.1-1.4-6.8-4.6-8.5-7.2C73.9,15.4,70.5,15.4,67.4,14.1z M66.9,2.5c0.7,1.4,1.8,3.1,3.5,3.9c1.7,0.7,4.2,0.3,7.1-1.2
					c1.1-0.6,2.3-0.7,3.4-0.2c1.1,0.4,2,1.3,2.4,2.4c0.5,1.4,2.6,5.2,5.4,6.2c1.2,0.4,2.5,0.3,4.1-0.4l5.9-52.1L66.9,2.5z"/>
			</defs>
			<use xlink:href="#SVGID_7_"  style="overflow:visible;fill:#727272;"/>
			<clipPath id="SVGID_8_">
				<use xlink:href="#SVGID_7_"  style="overflow:visible;"/>
			</clipPath>
			<g class="st5">
				
					<ellipse transform="matrix(0.3742 -0.9274 0.9274 0.3742 101.453 66.3998)" class="st2" cx="99.9" cy="-42" rx="13.3" ry="8.1"/>
			</g>
		</g>
		<g id="XMLID_17_">
			
				<rect x="-24.4" y="228.8" transform="matrix(0.3742 -0.9274 0.9274 0.3742 -239.9163 139.2221)" class="st2" width="15.1" height="37.2"/>
		</g>
		<g id="XMLID_16_">
			<path class="st2" d="M-15,292.6l-34.5-13.9c-2.1-0.9-3.1-3.3-2.3-5.4l11-27.4c0.9-2.1,3.3-3.1,5.4-2.3l34.5,13.9
				c2.1,0.9,3.1,3.3,2.3,5.4l-11,27.4C-10.4,292.4-12.9,293.4-15,292.6z M-42.6,272.5l26.8,10.8l7.9-19.7l-26.8-10.8L-42.6,272.5z"
				/>
		</g>
	</g>
	<g id="blocnotes_4_" class="st1">
		<g>
			<path class="st2" d="M486.6,1132.1c-1.1-0.5-2-1.4-2.5-2.5l-69.4-160.4c-0.7-1.6-0.5-3.4,0.6-4.8c1-1.4,2.7-2.1,4.4-1.9
				l138.8,16.1c1.7,0.2,3.2,1.3,3.9,2.9l69.4,160.4c0.7,1.6,0.5,3.4-0.6,4.8c-1,1.4-2.7,2.1-4.4,1.9l-138.8-16.1
				C487.4,1132.4,487,1132.3,486.6,1132.1z M426.8,973.1l64.9,150.1l127.7,14.8l-64.9-150.1L426.8,973.1z"/>
		</g>
		<g>
			<path class="st2" d="M478,1150.1c-1.1-0.5-2-1.4-2.5-2.5l-68.1-156.3c-0.5-1.1-0.5-2.3-0.2-3.4l7.2-22c0.6-1.9,2.4-3.2,4.4-3.3
				c2-0.1,3.9,1.1,4.7,2.9l68.3,157.8l136.1,15.7c1.7,0.2,3.2,1.3,3.9,2.9c0.7,1.6,0.5,3.4-0.6,4.8l-11.8,15.9
				c-1,1.4-2.7,2.1-4.4,1.9l-135.6-14C478.9,1150.4,478.5,1150.3,478,1150.1z M417,989.1l66.2,152l130.1,13.4l5.1-6.9l-130.5-15.1
				c-1.7-0.2-3.2-1.3-3.9-2.9L419.7,981L417,989.1z"/>
		</g>
		<g>
			<path class="st2" d="M417.2,971.8c-1.3-0.6-2.3-1.7-2.7-3.1c-0.6-1.9,0.1-3.9,1.5-5.1c11.7-9.7,18-20.7,18.8-32.5
				c1.4-19.7-13-35.8-13.2-36c-1.4-1.5-1.7-3.8-0.6-5.6c1-1.8,3.1-2.8,5.2-2.4l154.5,30.7c1.6,0.3,2.9,1.4,3.5,2.9
				c18.7,46.3-23.8,66.8-24.2,67c-0.8,0.4-1.7,0.5-2.6,0.4l-138.8-16.1C418.1,972.1,417.6,972,417.2,971.8z M436.1,899
				c4.5,7.8,9.3,19.4,8.4,32.7c-0.8,11.6-5.7,22.3-14.5,32L557,978.4c5.9-3.2,30.7-19,19.1-51.6L436.1,899z M557.9,983.4
				L557.9,983.4L557.9,983.4z M557.9,983.4L557.9,983.4L557.9,983.4z"/>
		</g>
		<g>
			<path class="st2" d="M377.9,917c-0.8-0.3-1.5-0.9-2.1-1.7c-1-1.4-1.2-3.3-0.4-4.9c13-27.3,39.2-27,51.2-23.1
				c0.6,0.2,1.2,0.5,1.6,0.9c12.7,10.9,15.7,32.8,15.8,33.7c0.3,2.5-1.4,4.9-3.9,5.4c-2.5,0.5-5-1-5.6-3.5
				c-1.8-6.9-30.1-8.9-54.3-6.4C379.5,917.5,378.7,917.3,377.9,917z M422.8,896.3c-4.3-1.1-22-4.5-33.9,10.8
				c5.3-0.3,12.2-0.5,19.3-0.2c9.6,0.4,17.3,1.5,23,3.4C429.4,905.3,426.7,900,422.8,896.3z"/>
		</g>
	</g>
	<g id="matita_4_" class="st1">
		<g>
			<path class="st2" d="M-3.9,1265.2l-34.5-13.9c-2.1-0.9-3.1-3.3-2.3-5.4l99.1-245.6l7.7,3.1l-97.5,241.8l26.8,10.8l97.5-241.8
				l7.7,3.1L1.5,1262.9C0.6,1265-1.8,1266-3.9,1265.2z"/>
		</g>
		<g>
			<defs>
				<path id="SVGID_9_" d="M67.4,1014.1c-0.1-0.1-0.3-0.1-0.4-0.2c-6.6-2.9-8.6-10.3-8.8-11.1c-0.3-1.2,0-2.5,0.7-3.5l42.3-55.1
					c1.1-1.5,3.1-2,4.8-1.3s2.8,2.5,2.6,4.3l-7.8,69c-0.1,1.3-0.9,2.4-1.9,3.1c-5.5,3.4-10,3-12.8,2.1c-4.1-1.4-6.8-4.6-8.5-7.2
					C73.9,1015.4,70.5,1015.4,67.4,1014.1z M66.9,1002.5c0.7,1.4,1.8,3.1,3.5,3.9c1.7,0.7,4.2,0.3,7.1-1.2c1.1-0.6,2.3-0.7,3.4-0.2
					c1.1,0.4,2,1.3,2.4,2.4c0.5,1.4,2.6,5.2,5.4,6.2c1.2,0.4,2.5,0.3,4.1-0.4l5.9-52.1L66.9,1002.5z"/>
			</defs>
			<use xlink:href="#SVGID_9_"  style="overflow:visible;fill:#727272;"/>
			<clipPath id="SVGID_10_">
				<use xlink:href="#SVGID_9_"  style="overflow:visible;"/>
			</clipPath>
			<g class="st6">
				
					<ellipse transform="matrix(0.3742 -0.9274 0.9274 0.3742 -825.9146 692.2474)" class="st2" cx="99.9" cy="958" rx="13.3" ry="8.1"/>
			</g>
		</g>
		<g id="XMLID_11_">
			
				<rect x="-24.4" y="1228.8" transform="matrix(0.3742 -0.9274 0.9274 0.3742 -1167.2838 765.0698)" class="st2" width="15.1" height="37.2"/>
		</g>
		<g id="XMLID_10_">
			<path class="st2" d="M-15,1292.6l-34.5-13.9c-2.1-0.9-3.1-3.3-2.3-5.4l11-27.4c0.9-2.1,3.3-3.1,5.4-2.3l34.5,13.9
				c2.1,0.9,3.1,3.3,2.3,5.4l-11,27.4C-10.4,1292.4-12.9,1293.4-15,1292.6z M-42.6,1272.5l26.8,10.8l7.9-19.7l-26.8-10.8
				L-42.6,1272.5z"/>
		</g>
	</g>
	<g id="penna_4_" class="st1">
		<g>
			<path class="st2" d="M1030.3,909.6l-44.4-4.6l23.8-228.7l44.4,4.6L1030.3,909.6z M994.3,898.2l29.2,3l22.2-213.5l-29.2-3
				L994.3,898.2z"/>
		</g>
		<g>
			
				<rect x="1022.2" y="683.2" transform="matrix(0.9946 0.1036 -0.1036 0.9946 85.3498 -102.0671)" class="st2" width="6" height="174.7"/>
		</g>
		<g>
			<path class="st2" d="M1005,678.3c0,0,22,17.3,55.2,5.7l-3.1-4.4l-11.6-89.4l-10.6-1.1l-29.2,82.4l-7.7-0.8l-7.4,71l6.2,14.7
				L1005,678.3z"/>
		</g>
		<g>
			<path class="st2" d="M1028.3,928.7l-44.4-4.6l2.7-25.7l44.4,4.6L1028.3,928.7z M992.3,917.2l29.2,3l1.1-10.5l-29.2-3L992.3,917.2
				z"/>
		</g>
	</g>
	<g id="matita_5_" class="st1">
		<g>
			<path class="st2" d="M996.1,265.2l-34.5-13.9c-2.1-0.9-3.1-3.3-2.3-5.4l99.1-245.6l7.7,3.1l-97.5,241.8l26.8,10.8l97.5-241.8
				l7.7,3.1l-99.1,245.6C1000.6,265,998.2,266,996.1,265.2z"/>
		</g>
		<g>
			<defs>
				<path id="SVGID_11_" d="M1067.4,14.1c-0.1-0.1-0.3-0.1-0.4-0.2c-6.6-2.9-8.6-10.3-8.8-11.1c-0.3-1.2,0-2.5,0.7-3.5l42.3-55.1
					c1.1-1.5,3.1-2,4.8-1.3c1.7,0.7,2.8,2.5,2.6,4.3l-7.8,69c-0.1,1.3-0.9,2.4-1.9,3.1c-5.5,3.4-10,3-12.8,2.1
					c-4.1-1.4-6.8-4.6-8.5-7.2C1073.9,15.4,1070.5,15.4,1067.4,14.1z M1066.9,2.5c0.7,1.4,1.8,3.1,3.5,3.9c1.7,0.7,4.2,0.3,7.1-1.2
					c1.1-0.6,2.3-0.7,3.4-0.2c1.1,0.4,2,1.3,2.4,2.4c0.5,1.4,2.6,5.2,5.4,6.2c1.2,0.4,2.5,0.3,4.1-0.4l5.9-52.1L1066.9,2.5z"/>
			</defs>
			<use xlink:href="#SVGID_11_"  style="overflow:visible;fill:#727272;"/>
			<clipPath id="SVGID_12_">
				<use xlink:href="#SVGID_11_"  style="overflow:visible;"/>
			</clipPath>
			<g class="st7">
				
					<ellipse transform="matrix(0.3742 -0.9274 0.9274 0.3742 727.3004 993.7669)" class="st2" cx="1099.9" cy="-42" rx="13.3" ry="8.1"/>
			</g>
		</g>
		<g id="XMLID_14_">
			
				<rect x="975.6" y="228.8" transform="matrix(0.3742 -0.9274 0.9274 0.3742 385.9311 1066.5892)" class="st2" width="15.1" height="37.2"/>
		</g>
		<g id="XMLID_13_">
			<path class="st2" d="M985,292.6l-34.5-13.9c-2.1-0.9-3.1-3.3-2.3-5.4l11-27.4c0.9-2.1,3.3-3.1,5.4-2.3l34.5,13.9
				c2.1,0.9,3.1,3.3,2.3,5.4l-11,27.4C989.6,292.4,987.1,293.4,985,292.6z M957.4,272.5l26.8,10.8l7.9-19.7l-26.8-10.8L957.4,272.5z
				"/>
		</g>
	</g>
	<g id="penna_3_" class="st1">
		<g>
			<path class="st2" d="M30.3,909.6l-44.4-4.6L9.7,676.3l44.4,4.6L30.3,909.6z M-5.7,898.2l29.2,3l22.2-213.5l-29.2-3L-5.7,898.2z"
				/>
		</g>
		<g>
			
				<rect x="22.2" y="683.2" transform="matrix(0.9946 0.1036 -0.1036 0.9946 79.9686 1.5351)" class="st2" width="6" height="174.7"/>
		</g>
		<g>
			<path class="st2" d="M5,678.3c0,0,22,17.3,55.2,5.7l-3.1-4.4l-11.6-89.4l-10.6-1.1L5.7,671.6l-7.7-0.8l-7.4,71l6.2,14.7L5,678.3z
				"/>
		</g>
		<g>
			<path class="st2" d="M28.3,928.7l-44.4-4.6l2.7-25.7L31,903L28.3,928.7z M-7.7,917.2l29.2,3l1.1-10.5l-29.2-3L-7.7,917.2z"/>
		</g>
	</g>
	<g id="foglio_3_" class="st1">
		<g>
			<path class="st2" d="M968.9,1175.9l-149.2,21.8L787,973.4l99.1-14.5l54.3,21.6L968.9,1175.9z M829,1185.3l127.5-18.6l-26-178.2
				l-45.7-18.2l-85.3,12.5L829,1185.3z"/>
		</g>
		<g>
			<path class="st2" d="M893.1,1014.4c-1.1,0.2-2.2,0-3.2-0.5c-1.6-0.8-2.8-2.3-3-4.1l-6.9-44.3c-0.3-1.9,0.5-3.9,2-5.1
				c1.5-1.2,3.6-1.5,5.4-0.8l50,19.9c2,0.8,3.3,2.6,3.4,4.7c0.1,2.1-0.9,4.1-2.8,5.1l-43.1,24.5
				C894.4,1014.1,893.7,1014.3,893.1,1014.4z M892.3,973.3l4.2,27l26.3-14.9L892.3,973.3z"/>
		</g>
	</g>
</g>
</svg>